<svg width="620" height="1080" viewBox="0 0 620 1080" fill="none" xmlns="http://www.w3.org/2000/svg">
<g clip-path="url(#clip0_2517_461)">
<g opacity="0.2" clip-path="url(#clip1_2517_461)">
<path d="M30.0975 896C-48.4557 896 -112 959.544 -112 1038.1C-112 1116.46 -48.4557 1180.19 30.0975 1180.19C108.456 1180.19 172.195 1116.65 172.195 1038.1C172 959.544 108.456 896 30.0975 896ZM30.0975 1171.03C-43.3878 1171.03 -102.839 1111.58 -102.839 1038.1C-102.839 964.612 -43.3878 905.161 30.0975 905.161C103.583 905.161 163.034 964.612 163.034 1038.1C163.034 1111.39 103.388 1171.03 30.0975 1171.03Z" fill="white"/>
<path d="M30.0988 926.603C-31.3014 926.603 -81.2012 976.502 -81.2012 1037.9C-81.2012 1099.3 -31.3014 1149.2 30.0988 1149.2C91.4989 1149.2 141.399 1099.5 141.399 1038.1C141.399 976.502 91.4989 926.603 30.0988 926.603ZM30.0988 1132.24C-21.9452 1132.24 -64.243 1089.95 -64.243 1037.9C-64.243 985.859 -21.9452 943.561 30.0988 943.561C82.1427 943.561 124.441 985.859 124.441 1037.9C124.441 1089.95 82.1427 1132.24 30.0988 1132.24Z" fill="white"/>
<path d="M30.098 975.527C-4.40304 975.527 -32.4717 1003.6 -32.4717 1038.1C-32.4717 1072.6 -4.59796 1100.67 30.098 1100.67C64.599 1100.67 92.6677 1072.6 92.6677 1038.1C92.4727 1003.6 64.599 975.527 30.098 975.527ZM30.098 1071.62C11.5805 1071.62 -3.42843 1056.61 -3.42843 1038.1C-3.42843 1019.58 11.5805 1004.57 30.098 1004.57C48.6155 1004.57 63.6244 1019.58 63.6244 1038.1C63.6244 1056.61 48.6155 1071.62 30.098 1071.62Z" fill="white"/>
</g>
<g opacity="0.3">
<path d="M146.301 144.921L146.301 133L178 133L178 164.699L166.169 164.699L166.169 144.921L146.301 144.921Z" fill="white"/>
<path d="M124.898 166.325L124.898 154.494L156.597 154.494L156.597 186.103L144.676 186.103L144.676 166.325L124.898 166.325Z" fill="white"/>
<path d="M103.495 187.819L103.495 175.898L135.103 175.898L135.103 207.597L123.272 207.597L123.272 187.819L103.495 187.819Z" fill="white"/>
<path d="M82.0005 209.222L82.0004 197.301L113.699 197.301L113.699 229L101.778 229L101.778 209.222L82.0005 209.222Z" fill="white"/>
</g>
</g>
<defs>
<clipPath id="clip0_2517_461">
<rect width="1920" height="1080" fill="white"/>
</clipPath>
<clipPath id="clip1_2517_461">
<rect width="284" height="284" fill="white" transform="translate(-112 896)"/>
</clipPath>
</defs>
</svg>
